<svg xmlns="http://www.w3.org/2000/svg" width="880.965" height="173.638" viewBox="-190.483 -11.819 880.965 173.638" preserveAspectRatio="xMidYMid"><defs><filter id="A"><feFlood flood-color="#333" result="A"/><feMorphology radius="1" in="SourceAlpha"/><feComposite operator="in" in="A"/><feConvolveMatrix order="3,3" divisor="1" kernelMatrix="0 0 0 1 1 1 0 0 0"/><feOffset dx="-3"/><feComposite operator="in" in="A" result="F"/><feFlood flood-color="#000"/><feComposite operator="in" in2="SourceAlpha"/><feMorphology operator="dilate" radius="1"/><feOffset dx="-4.5"/><feGaussianBlur stdDeviation="5.8"/><feComponentTransfer result="L"><feFuncA type="linear" slope="0.8" intercept="-0.2"/></feComponentTransfer><feMerge><feMergeNode in="L"/><feMergeNode in="F"/><feMergeNode in="SourceGraphic"/></feMerge></filter></defs><g filter="url(#A)"><g transform="translate(-65.785 111.109)"><path d="M64.6-40.26q0 41.33-44.8 41.33-7.18 0-19-1.75L11.64-58q.78-3.88 1.26-6.1 14.74-1.06 21.3-1.06 6.55 0 12.56 1.35 6.02 1.36 10 4.37 7.85 5.92 7.85 19.2zm-19.98-3.58q0-14.46-10.38-14.46h-.97q-.48 0-.97.1l-10 52.1q.4.2.78.2h.77q3.6 0 7.33-2.23 3.73-2.23 6.64-6.8 6.8-10.57 6.8-28.9zM73.77-2.9q-2.28-2.52-3.3-6.5-1.02-3.98-1.02-10.48 0-6.5 2.23-12.4 2.23-5.92 6.3-10.2 8.34-8.92 22.1-8.92 4.95 0 8.54 1.65l16.6-1.65-7.18 37.83q-.3 1.16-.3 3.3 0 2.13 1.3 3.5 1.3 1.36 3.25 1.55-.97 3.3-4.5 5.24-3.54 1.94-7.52 1.94-3.98 0-6.65-1.5-2.66-1.5-3.44-4.03Q98.65-1.16 95.35.4q-3.3 1.55-7.7 1.55-4.4 0-8-1.16-3.6-1.17-5.87-3.7zM94.24-42.3q-1.12 1.74-2.1 4.7-.97 2.96-2.57 10.87-1.6 7.9-1.6 13.53 0 5.62.87 7.27.88 1.65 2.43 1.65 3.1 0 5.38-2.96 2.28-2.96 3.15-8.2l5.14-28.42q-2.03-1.75-4.4-1.75-2.38 0-3.78.78-1.4.77-2.52 2.52zm37.78 32.6q0-2.62 1.36-9.2l5.14-26.2h-5.73l.4-2.9q11.64-3.5 22.9-12.02h4.66l-2.33 10.57h7.57l-.88 4.36h-7.46l-4.95 26.2q-1.26 6-1.26 8.05 0 4.65 4.07 5.62-.97 3.3-4.46 5.24-3.5 1.94-8.44 1.94-4.95 0-7.76-3.1-2.8-3.1-2.8-8.54zm37.3 6.8q-2.28-2.52-3.3-6.5Q165-13.4 165-19.9q0-6.5 2.23-12.4 2.23-5.92 6.3-10.2 8.35-8.92 22.12-8.92 4.95 0 8.54 1.65l16.58-1.65-7.18 37.83q-.3 1.16-.3 3.3 0 2.13 1.3 3.5 1.3 1.36 3.25 1.55-.97 3.3-4.5 5.24-3.54 1.94-7.52 1.94-3.97 0-6.64-1.5-2.67-1.5-3.44-4.03Q194.2-1.16 190.9.4q-3.3 1.55-7.72 1.55-4.4 0-8-1.16-3.6-1.17-5.87-3.7zm20.47-39.38q-1.12 1.74-2.1 4.7-.97 2.96-2.57 10.87-1.6 7.9-1.6 13.53 0 5.62.88 7.27.87 1.65 2.42 1.65 3.1 0 5.4-2.96 2.27-2.96 3.15-8.2l5.14-28.42q-2.04-1.75-4.4-1.75-2.38 0-3.8.78-1.4.77-2.52 2.52zm74.06-2.52q1.46-2.9 1.46-5.63 0-2.72-.3-4.22-.3-1.5-.97-2.67-1.45-2.52-4.36-2.52-3.6 0-6.5 2.62-3.1 2.72-3.1 6.98 0 2.72 1.9 4.8 1.9 2.08 4.8 4.02 2.9 1.94 6.2 3.88 3.3 1.94 6.2 4.27 6.7 5.33 6.7 12.5 0 4.85-2.57 8.97-2.57 4.13-6.84 7.13-9.3 6.6-21.63 6.6-10 0-15.13-3.25-5.15-3.25-5.15-8.2 0-8.82 6.9-11.05 1.94-.68 4.9-.68 2.96 0 6.35 1.26-1.55 3.98-1.55 7.56 0 7.76 5.53 7.76 3.6 0 6.55-2.62 2.96-2.6 2.96-5.57 0-2.96-1.9-5.1-1.9-2.13-4.7-3.83-2.8-1.7-6.06-3.34-3.25-1.65-6.06-3.98-6.6-5.34-6.6-13.87 0-5.53 2.72-9.85 2.7-4.3 7.08-7.22 8.73-5.92 19.45-5.92 10.7 0 15.9 3.2 5.2 3.2 5.2 8.63 0 4.76-3.68 7.76-3.2 2.53-7.08 2.53-3.88 0-6.6-.97zm67.03 4.46q0 4.07-3.4 6.6-3.4 2.53-8.92 2.53-2.33 0-3.7-.68 1.07-2.53 1.4-5.68.34-3.15.34-4.02 0-4.08-2.8-4.08-1.94 0-4.13 2.43-2.18 2.42-4.02 6.2-4.08 8.73-4.08 17.55 0 4.85 1.85 7.04 1.84 2.18 5.9 2.18 5.63 0 10.1-4.66 1.26-1.45 1.94-3.1 3.7 1.94 3.7 7.27 0 5.44-6.02 9.02-6.2 3.7-16.1 3.7-19.7 0-19.7-20.85 0-15.23 8.63-23.96 8.35-8.54 23.67-8.54 15.33 0 15.33 11.06zm25.9 35.02q-3 7.27-12.6 7.27-4.95 0-8.06-3.4-2.6-3-2.6-6 0-7.86 3.58-23.18l3.6-18.82 19.7-1.94-5.92 30.65q-1.65 7.18-1.65 9.7 0 5.53 3.98 5.73zM342.4-62.95q0-3.8 3.15-5.82 3.15-2.04 7.7-2.04 4.56 0 7.33 2.04 2.76 2.03 2.76 5.82 0 3.78-3.05 5.72-3.06 1.94-7.62 1.94-4.56 0-7.42-1.94-2.86-1.94-2.86-5.72zm61.9 46.56q2.42 1.65 2.42 5.28 0 3.64-1.84 5.97-1.85 2.33-4.85 3.88-6.2 3.2-12.9 3.2-6.7 0-10.62-1.46-3.93-1.45-6.55-4.17-5.14-5.14-5.14-14.55 0-14.64 7.95-23.57 8.54-9.6 23.38-9.6 9.2 0 13.77 3.88 3.4 2.9 3.4 7.66 0 17.07-29.5 17.07-.4 2.53-.4 4.66 0 4.46 2 6.16 2 1.7 5.67 1.7 3.7 0 7.62-1.7 3.93-1.7 5.58-4.4zm-19.8-10.58q6.88 0 10.86-4.26 3.98-4.08 3.98-10.58 0-2.23-.83-3.44-.82-1.2-2.47-1.2-1.65 0-3.05.63-1.4.63-2.87 2.76-3.6 4.85-5.62 16.1zm73.14 28.9q-11.74 0-11.74-9.12.1-2.52.87-6.8l1.75-8.92q2.62-12.6 2.62-15.42 0-5.63-3.3-5.63-5.53 0-8.44 14.45L433.7 0l-19.5 1.94 10.1-51.5 15.9-1.84-1.56 9.5q4.56-9.5 18.53-9.5 6.8 0 9.65 2.86 2.86 2.86 2.86 9.26 0 6.02-3.1 20.08-1.46 6.3-1.46 8.7 0 2.37 1.3 3.73 1.3 1.36 3.25 1.55-.97 3.3-4.3 5.24-3.35 1.94-7.7 1.94zm67.4-42.3q0 4.07-3.4 6.6-3.4 2.53-8.93 2.53-2.33 0-3.68-.68 1.06-2.53 1.4-5.68.34-3.15.34-4.02 0-4.08-2.8-4.08-1.94 0-4.12 2.43-2.2 2.42-4.03 6.2-4.07 8.73-4.07 17.55 0 4.85 1.84 7.04 1.84 2.18 5.92 2.18 5.62 0 10.1-4.66 1.26-1.45 1.93-3.1 3.7 1.94 3.7 7.27 0 5.44-6 9.02-6.2 3.7-16.1 3.7-19.7 0-19.7-20.85 0-15.23 8.64-23.96 8.34-8.54 23.66-8.54 15.33 0 15.33 11.06zm41.9 23.96q2.43 1.65 2.43 5.28 0 3.64-1.84 5.97-1.85 2.33-4.85 3.88-6.2 3.2-12.9 3.2-6.7 0-10.63-1.46-3.92-1.45-6.54-4.17-5.14-5.14-5.14-14.55 0-14.64 7.95-23.57 8.54-9.6 23.38-9.6 9.2 0 13.77 3.88 3.4 2.9 3.4 7.66 0 17.07-29.5 17.07-.4 2.53-.4 4.66 0 4.46 2 6.16 2 1.7 5.67 1.7 3.7 0 7.62-1.7 3.93-1.7 5.57-4.4zm-19.78-10.58q6.88 0 10.86-4.26 3.98-4.08 3.98-10.58 0-2.23-.83-3.44-.82-1.2-2.47-1.2-1.65 0-3.06.63-1.4.63-2.86 2.76-3.6 4.85-5.62 16.1zm36.28 12.6q2.9 3.8 9.8 3.8 9.02 0 14.07-6.3 3.4-4.36 4.94-12.22-2.52 4.17-5.86 6.35-3.35 2.2-8 2.2-4.65 0-7.6-1.65-2.96-1.65-4.8-4.37-3.5-5.04-3.5-12.22 0-7.18 2.52-12.22 2.52-5.05 6.6-8.44 7.96-6.8 18.53-6.8 9.22 0 14.84 6 5.82 6.4 5.82 17.85 0 7.66-2.62 15.52-2.62 7.86-7.37 14.26-4.75 6.4-11.25 10.48-6.5 4.07-13.87 4.07-7.38 0-11.55-2.33-4.17-2.33-4.17-6.6 0-4.66 3.5-7.38zm17.65-34.72q-.87 2.62-1.2 5.28-.34 2.67-.34 5.3 0 2.62 1.5 5.04 1.5 2.43 3.54 2.43 2.04 0 3.64-1.16 1.6-1.17 2.96-3.2 2.8-4.46 2.8-9.8 0-5.34-1.7-7.8-1.7-2.47-4.4-2.47-2.72 0-4.32 1.9-1.6 1.9-2.47 4.5z" fill="#eb6c6c"/></g></g></svg>