<svg width="172.23505859374998px" height="159.22999267578123px" xmlns="http://www.w3.org/2000/svg" viewBox="163.88247070312502 -4.6149963378906165 172.23505859374998 159.22999267578123" style="background: rgba(0, 0, 0, 0);" preserveAspectRatio="xMidYMid"><defs><filter id="editing-extrude-glow"><feFlood flood-color="#333333" result="flood-1"></feFlood><feMorphology operator="erode" radius="1" in="SourceAlpha" result="erode"></feMorphology><feComposite operator="in" in="flood-1" in2="erode" result="comp1"></feComposite><feConvolveMatrix order="3,3" divisor="1" in="comp1" result="convolve" kernelMatrix="0 0 0 1 1 1 0 0 0"></feConvolveMatrix><feOffset dx="-3" dy="0" in="convolve" result="extrude"></feOffset><feComposite operator="in" in="flood-1" in2="extrude" result="comp-extrude"></feComposite><feFlood flood-color="#000000" result="flood-2"></feFlood><feComposite operator="in" in="flood-2" in2="SourceAlpha" result="comp2"></feComposite><feMorphology operator="dilate" radius="1" in="comp2" result="dilate"></feMorphology><feOffset dx="-4.5" dy="0" in="dilate" result="offset"></feOffset><feGaussianBlur in="offset" stdDeviation="5.8" result="blur"></feGaussianBlur><feComponentTransfer in="blur" result="shadow"><feFuncA type="linear" slope="0.8" intercept="-0.2"></feFuncA></feComponentTransfer><feMerge><feMergeNode in="shadow"></feMergeNode><feMergeNode in="comp-extrude"></feMergeNode><feMergeNode in="SourceGraphic"></feMergeNode></feMerge></filter></defs><g filter="url(#editing-extrude-glow)"><g transform="translate(194.7399986386299, 106.19562339782715)"><path d="M58.61-36.52L58.61-36.52L58.61-36.52Q58.61 0.97 17.95 0.97L17.95 0.97L17.95 0.97Q11.44 0.97 0.70-0.62L0.70-0.62L10.56-52.62L10.56-52.62Q11.26-56.14 11.70-58.17L11.70-58.17L11.70-58.17Q25.08-59.14 31.02-59.14L31.02-59.14L31.02-59.14Q36.96-59.14 42.42-57.90L42.42-57.90L42.42-57.90Q47.87-56.67 51.48-53.94L51.48-53.94L51.48-53.94Q58.61-48.58 58.61-36.52ZM40.48-39.78L40.48-39.78L40.48-39.78Q40.48-52.89 31.06-52.89L31.06-52.89L30.18-52.89L30.18-52.89Q29.74-52.89 29.30-52.80L29.30-52.80L20.24-5.54L20.24-5.54Q20.59-5.37 20.94-5.37L20.94-5.37L21.65-5.37L21.65-5.37Q24.90-5.37 28.29-7.39L28.29-7.39L28.29-7.39Q31.68-9.42 34.32-13.55L34.32-13.55L34.32-13.55Q40.48-23.14 40.48-39.78ZM66.88-13.02L66.88-13.02L66.88-13.02Q69.52-9.59 75.77-9.59L75.77-9.59L75.77-9.59Q83.95-9.59 88.53-15.31L88.53-15.31L88.53-15.31Q91.61-19.27 93.02-26.40L93.02-26.40L93.02-26.40Q90.73-22.62 87.69-20.64L87.69-20.64L87.69-20.64Q84.66-18.66 80.43-18.66L80.43-18.66L80.43-18.66Q76.21-18.66 73.52-20.15L73.52-20.15L73.52-20.15Q70.84-21.65 69.17-24.11L69.17-24.11L69.17-24.11Q66-28.69 66-35.20L66-35.20L66-35.20Q66-41.71 68.29-46.29L68.29-46.29L68.29-46.29Q70.58-50.86 74.27-53.94L74.27-53.94L74.27-53.94Q81.49-60.10 91.08-60.10L91.08-60.10L91.08-60.10Q99.44-60.10 104.54-54.65L104.54-54.65L104.54-54.65Q109.82-48.84 109.82-38.46L109.82-38.46L109.82-38.46Q109.82-31.50 107.45-24.38L107.45-24.38L107.45-24.38Q105.07-17.25 100.76-11.44L100.76-11.44L100.76-11.44Q96.45-5.63 90.55-1.94L90.55-1.94L90.55-1.94Q84.66 1.76 77.97 1.76L77.97 1.76L77.97 1.76Q71.28 1.76 67.50-0.35L67.50-0.35L67.50-0.35Q63.71-2.46 63.71-6.34L63.71-6.34L63.71-6.34Q63.71-10.56 66.88-13.02ZM82.90-44.53L82.90-44.53L82.90-44.53Q82.10-42.15 81.80-39.73L81.80-39.73L81.80-39.73Q81.49-37.31 81.49-34.94L81.49-34.94L81.49-34.94Q81.49-32.56 82.85-30.36L82.85-30.36L82.85-30.36Q84.22-28.16 86.06-28.16L86.06-28.16L86.06-28.16Q87.91-28.16 89.36-29.22L89.36-29.22L89.36-29.22Q90.82-30.27 92.05-32.12L92.05-32.12L92.05-32.12Q94.60-36.17 94.60-41.01L94.60-41.01L94.60-41.01Q94.60-45.85 93.06-48.09L93.06-48.09L93.06-48.09Q91.52-50.34 89.06-50.34L89.06-50.34L89.06-50.34Q86.59-50.34 85.14-48.62L85.14-48.62L85.14-48.62Q83.69-46.90 82.90-44.53Z" fill="#eb6c6c"></path></g></g><style>text {
  font-size: 64px;
  font-family: Arial Black;
  dominant-baseline: central;
  text-anchor: middle;
}</style></svg>